PathFileType  4	(X/Y/Z) C:\Users\antoi\Documents\MyRepositories\mobilecap\ResultsAnalysis
DataRate	CameraRate	NumFrames	NumMarkers	Units	OrigDataRate	OrigDataStartFrame	OrigNumFrames
100.0	100.0	6	51	mm	100.0	203	270
Frame#	Time	r_knee			r_shank_antsup			r_ankle			r_calc			r_5meta			r_toe			L_knee			L_shank_antsup			L_ankle			L_calc			L_5meta			L_toe			r_sh2			r_sh3			r_sh4			L_sh2			L_sh3			r_thigh1			r_thigh2			r_thigh3			r_thigh4			r_thigh5			L_thigh1			L_thigh2			L_thigh3			L_thigh4			r.ASIS			r.PSIS			L.ASIS			L.PSIS			C7			R_Shoulder			L_Shoulder			R_Sternum			L_Sternum			R_humerus			R_elbow_med			R_elbow_lat			R_forearm			R_wrist_radius			R_wrist_ulna			L_humerus			L_elbow_med			L_elbow_lat			L_forearm			L_wrist_radius			L_wrist_ulna			R_HJC			L_HJC			R_HJC_reg			L_HJC_reg			
		X1	Y1	Z1	X2	Y2	Z2	X3	Y3	Z3	X4	Y4	Z4	X5	Y5	Z5	X6	Y6	Z6	X7	Y7	Z7	X8	Y8	Z8	X9	Y9	Z9	X10	Y10	Z10	X11	Y11	Z11	X12	Y12	Z12	X13	Y13	Z13	X14	Y14	Z14	X15	Y15	Z15	X16	Y16	Z16	X17	Y17	Z17	X18	Y18	Z18	X19	Y19	Z19	X20	Y20	Z20	X21	Y21	Z21	X22	Y22	Z22	X23	Y23	Z23	X24	Y24	Z24	X25	Y25	Z25	X26	Y26	Z26	X27	Y27	Z27	X28	Y28	Z28	X29	Y29	Z29	X30	Y30	Z30	X31	Y31	Z31	X32	Y32	Z32	X33	Y33	Z33	X34	Y34	Z34	X35	Y35	Z35	X36	Y36	Z36	X37	Y37	Z37	X38	Y38	Z38	X39	Y39	Z39	X40	Y40	Z40	X41	Y41	Z41	X42	Y42	Z42	X43	Y43	Z43	X44	Y44	Z44	X45	Y45	Z45	X46	Y46	Z46	X47	Y47	Z47	X48	Y48	Z48	X49	Y49	Z49	X50	Y50	Z50	X51	Y51	Z51	

203	2.02000000	-159.39513	537.18261	-424.00678	-149.49011	453.45378	-407.11795	-308.15888	128.21233	-420.87693	-380.10371	85.89857	-471.25743	-192.26909	39.06818	-380.45431	-152.04543	56.79490	-439.64118	-172.54883	538.21744	-735.43368	-169.79372	418.21631	-754.01430	-315.15779	123.65511	-721.97755	-390.49757	84.97906	-670.40655	-190.29020	32.01953	-770.54056	-159.54844	55.57479	-707.29408	-183.55021	345.42199	-399.40400	-219.84244	477.37209	-388.57670	-263.84221	370.30355	-388.02663	-252.47994	454.20252	-756.61268	-286.73293	338.38168	-751.85982	-178.15266	857.43466	-380.73714	-138.42483	756.06124	-396.99683	-178.86858	709.63049	-371.73910	-282.98182	812.18719	-383.79025	-233.20333	705.98068	-383.70438	-201.45793	862.54509	-752.26962	-150.86144	733.73459	-754.32334	-310.21989	818.66618	-737.53820	-252.21020	692.28515	-748.78456	-183.46606	1021.84865	-433.56585	-367.20790	1101.06042	-501.06756	-200.87780	1017.60048	-691.94316	-373.76907	1098.22697	-605.12718	-281.35538	1595.53924	-562.07362	-215.68028	1614.31351	-435.88820	-198.42893	1611.61854	-681.52604	-125.94877	1527.86217	-530.22469	-129.53772	1525.17310	-579.92485	-80.73688	1633.71931	-237.68849	28.59799	1570.87866	-200.02487	-16.11624	1645.31758	-170.14469	47.27620	1735.46510	-291.15165	88.40088	1777.37927	-383.35769	110.09881	1793.80634	-345.86731	-102.29891	1555.99696	-907.27781	-25.61755	1455.91960	-959.73874	-60.54180	1528.45185	-986.73641	45.93361	1648.04077	-913.11856	90.87599	1705.09833	-851.47709	113.59749	1703.44602	-879.69876	-282.82590	963.09391	-433.18772	-295.46791	958.72953	-663.16721	-274.45712	965.09651	-463.08908	-285.21092	960.45126	-633.62693	
204	2.03000000	-179.02329	555.58749	-421.26665	-168.03541	471.44676	-404.10784	-304.81631	136.70988	-419.74636	-375.22431	99.25121	-470.73726	-191.19965	39.79668	-380.21150	-151.10211	57.57338	-439.19750	-191.16159	555.19139	-732.53440	-184.17520	435.33009	-753.33199	-312.51222	130.65317	-723.24774	-386.56962	96.01287	-671.51677	-190.07148	32.05285	-769.94944	-159.29152	56.17721	-707.54183	-195.73942	361.55070	-396.77881	-239.83727	491.03853	-385.86848	-277.39769	382.07892	-386.34759	-268.97014	466.32419	-754.20349	-296.83524	348.45767	-750.24102	-175.12929	879.90702	-381.87363	-142.46495	775.43493	-396.59517	-185.98452	732.36505	-370.22275	-282.86895	841.70891	-382.35097	-240.62159	732.28697	-381.92734	-198.79260	881.97541	-751.36072	-157.52155	749.91757	-753.46206	-310.41627	845.63041	-736.98202	-261.29649	715.79750	-747.79843	-172.24239	1050.21556	-434.77101	-356.93556	1126.93060	-501.93447	-190.64495	1044.88468	-693.84563	-363.59114	1123.70927	-606.06618	-285.16076	1623.43292	-560.90217	-223.77226	1644.69819	-438.04911	-205.16498	1644.74801	-677.81975	-129.17576	1560.77428	-529.93366	-131.96469	1557.75779	-576.86298	-92.07925	1671.02104	-239.56998	17.25056	1610.52093	-199.99490	-29.43863	1684.26974	-169.39342	31.99684	1778.07814	-288.51031	72.27627	1822.51328	-380.37308	93.78856	1838.45621	-342.74927	-110.02245	1600.86729	-904.99530	-34.77783	1503.15274	-964.21556	-70.88202	1576.54342	-987.20405	33.18511	1695.17857	-909.16130	76.94230	1749.99913	-846.03873	99.40691	1750.99660	-875.77702	-270.73085	990.20954	-434.12583	-284.28211	985.01159	-664.03646	-262.92487	991.95753	-464.11842	-273.85573	986.66549	-635.14350	
205	2.04000000	-201.05760	577.33528	-417.62782	-188.40880	493.21610	-400.91031	-298.32076	149.09510	-417.95902	-367.53686	117.77723	-470.40704	-189.47489	41.72496	-379.86127	-149.01443	58.88095	-438.92350	-211.80188	575.07334	-728.77141	-200.02359	455.66688	-752.02978	-307.53373	141.08985	-724.82482	-380.01566	112.08908	-672.61361	-189.38058	32.43348	-769.38572	-157.93747	57.52022	-708.18294	-209.04283	381.79763	-393.64331	-261.68349	507.54118	-383.97465	-291.65660	397.37600	-385.26371	-286.72799	481.03480	-750.43769	-307.25038	361.65922	-748.44140	-171.88466	903.57617	-383.13041	-146.63967	796.49501	-396.30895	-193.27881	757.13189	-368.94730	-282.13304	873.07651	-380.66303	-247.89786	760.94959	-380.14268	-196.31425	903.09821	-750.28065	-164.85100	768.34416	-752.59688	-310.52691	874.69753	-736.75621	-270.71587	741.55456	-746.42073	-160.84807	1079.26421	-436.00740	-346.05095	1153.59016	-502.78013	-179.76879	1073.23460	-695.52799	-352.82566	1149.94391	-607.11814	-288.96836	1651.23573	-559.41528	-232.49724	1673.92069	-439.99167	-212.71723	1676.74452	-674.13201	-131.97101	1594.07436	-529.11634	-133.08159	1591.96865	-577.82755	-104.40342	1704.81820	-240.40038	5.12009	1646.94069	-198.42610	-43.53225	1719.59314	-167.83792	16.32895	1816.65904	-284.75961	56.23982	1863.48304	-376.25228	77.58845	1878.83442	-338.73734	-119.99715	1643.31644	-902.82876	-46.40116	1547.94563	-968.97744	-83.07285	1622.27899	-987.40112	19.95778	1738.83147	-905.78558	63.28899	1791.22750	-840.55165	85.66818	1794.49538	-871.92086	-258.30121	1018.00456	-435.16818	-272.43342	1012.25801	-665.03045	-250.96723	1019.91464	-465.11767	-262.09064	1013.92944	-636.43652	
206	2.05000000	-225.90467	601.44003	-414.18665	-209.28623	518.77598	-397.77914	-288.32598	166.58482	-415.68210	-356.30018	142.97605	-471.10351	-187.34276	46.96838	-380.51609	-144.34118	62.46358	-438.04369	-234.85277	597.67740	-724.48228	-216.81526	479.64754	-749.69051	-298.83432	156.81788	-727.06100	-369.54262	134.76976	-672.90247	-187.91399	34.56517	-769.07161	-153.47095	60.18660	-709.45974	-222.21626	406.27751	-389.81730	-283.53585	527.14838	-383.15911	-305.29246	415.89672	-384.66825	-305.04646	498.67297	-745.12397	-316.78522	378.42808	-746.53114	-168.44049	927.03877	-384.13610	-151.16791	818.21027	-395.90837	-200.61325	782.60657	-368.01953	-280.66352	904.68653	-378.76818	-254.90373	790.32589	-378.58189	-194.10318	925.30990	-748.93839	-172.85492	788.59179	-751.13394	-310.44752	905.13304	-737.20246	-280.32922	769.09917	-744.74974	-149.70091	1108.33431	-437.19765	-334.78629	1180.60473	-503.39304	-168.83996	1101.77274	-696.54277	-341.58439	1176.67871	-608.29302	-292.77861	1678.24697	-557.66785	-241.01925	1701.63815	-442.13856	-220.66553	1706.54566	-670.88825	-133.59039	1626.13793	-528.11659	-134.52661	1624.69309	-580.32586	-117.32603	1735.50521	-239.38783	-7.38101	1680.39708	-195.44844	-58.28452	1751.57107	-165.14834	0.69532	1851.08717	-280.34833	40.70719	1899.93934	-371.27970	61.75915	1914.86082	-333.48660	-131.93150	1682.99735	-901.00199	-59.95984	1589.93276	-973.80512	-96.52442	1665.16759	-987.39244	6.44108	1778.71124	-902.98614	50.13806	1828.48413	-835.06812	72.36917	1833.86240	-867.91781	-246.12294	1046.02716	-436.04478	-260.53038	1039.85394	-665.87914	-239.18448	1048.15002	-466.15681	-250.28081	1041.74373	-637.36564	
207	2.06000000	-249.52210	626.62159	-410.56253	-227.59211	546.36226	-394.39238	-279.11979	188.60508	-413.96947	-344.67822	173.28029	-473.13930	-185.80503	58.25753	-383.78603	-137.70994	72.89612	-436.49142	-258.41647	622.36939	-720.90391	-232.61932	507.08105	-747.15880	-289.02145	178.00356	-728.49053	-357.20256	163.15463	-671.33794	-186.03156	42.28441	-767.84963	-145.54152	67.38743	-711.36711	-233.33868	433.25919	-385.26858	-302.42829	549.19107	-382.73682	-316.47389	436.77186	-383.98641	-322.01671	518.96286	-739.78283	-324.12123	398.37360	-744.59978	-166.23212	949.39579	-384.24412	-156.73227	839.52779	-394.79666	-208.60145	807.43170	-367.11685	-279.76663	934.58264	-376.97698	-262.22553	818.64695	-377.74463	-192.69583	947.44070	-747.72085	-181.84078	809.29948	-748.53409	-310.38135	935.54657	-738.10065	-290.34135	797.76366	-742.54133	-139.18657	1136.95099	-438.44699	-323.82721	1207.51953	-503.86132	-158.62427	1129.77554	-696.97465	-330.46870	1203.71040	-609.56245	-296.00340	1703.78212	-556.00404	-247.51240	1727.64167	-443.92852	-228.52999	1733.53991	-668.28986	-134.70090	1655.38933	-527.41789	-136.94539	1653.50578	-581.51756	-130.55994	1763.25101	-236.64909	-20.52024	1710.82912	-191.40651	-73.66948	1780.42825	-161.50399	-14.55171	1881.57067	-275.42428	26.13655	1931.73542	-365.81100	46.70937	1946.69554	-327.49567	-145.36462	1720.16572	-899.89264	-74.74376	1628.85824	-978.63335	-110.70300	1704.73842	-987.44337	-6.96836	1814.71884	-900.83976	37.58238	1861.36754	-830.48282	59.59646	1868.59076	-864.23429	-234.80759	1073.88070	-436.74765	-249.39874	1067.26259	-666.55843	-228.19996	1075.72431	-467.52008	-238.92632	1069.56974	-638.24733	
208	2.07000000	-264.90696	652.09199	-406.75480	-239.80572	573.27313	-391.10993	-276.30173	212.48588	-413.53695	-339.00632	202.35132	-475.29431	-185.72557	76.16828	-389.12454	-133.09693	93.05258	-436.02787	-275.92693	648.01891	-719.03011	-244.47718	534.82231	-745.52796	-283.92130	201.73966	-726.99656	-349.12427	191.67268	-667.23530	-184.60580	58.35286	-763.74265	-138.06391	83.68790	-712.16551	-241.17565	459.90989	-381.47538	-315.16278	572.80916	-382.33284	-324.08205	459.41585	-383.51044	-334.35284	541.21919	-736.00541	-329.39463	420.65866	-742.23631	-166.88305	971.03383	-382.66461	-163.21797	860.63196	-392.26621	-217.05145	831.33457	-365.27567	-281.13042	961.73074	-376.32941	-269.72067	845.01630	-377.59073	-192.93283	969.03923	-747.07875	-190.92282	830.06333	-745.96549	-311.10207	964.25225	-737.98838	-299.53009	825.81552	-739.12440	-130.06098	1164.21878	-439.78204	-314.26568	1234.50538	-504.48187	-150.04646	1156.08059	-696.56710	-320.58025	1231.11109	-610.95082	-298.22571	1727.52533	-554.78653	-251.60492	1752.23174	-444.78270	-235.68265	1757.72923	-665.85778	-135.72494	1681.61301	-526.54190	-138.87810	1679.11652	-582.11679	-144.24349	1788.25403	-233.26057	-34.51664	1738.20155	-186.03361	-89.76757	1806.45638	-157.41082	-29.29052	1908.54225	-269.99558	12.82620	1958.93235	-359.94885	32.54009	1974.57916	-321.42417	-159.85727	1754.37739	-899.64885	-89.94303	1664.38816	-983.46995	-125.21342	1740.60658	-987.75764	-19.83455	1846.79586	-899.44450	25.68010	1890.05058	-827.32797	47.64848	1898.34985	-861.15911	-225.82832	1101.31621	-437.13148	-240.51390	1093.90561	-666.91065	-219.24416	1102.25848	-469.08683	-229.30623	1096.84920	-638.77996	
